<svg xmlns="http://www.w3.org/2000/svg" viewBox="0 0 800 600" fill="none">
  <rect width="800" height="600" fill="#1a1218"/>
  <rect x="200" y="140" width="400" height="280" rx="6" fill="#2d1518" stroke="#C9B99A" stroke-width="1" opacity="0.4"/>
  <line x1="220" y1="160" x2="580" y2="160" stroke="#C9B99A" stroke-width="0.5" opacity="0.3"/>
  <rect x="220" y="170" width="160" height="120" rx="4" fill="#3a2025"/>
  <rect x="225" y="175" width="150" height="110" rx="2" fill="#1a0e12"/>
  <rect x="400" y="170" width="160" height="120" rx="4" fill="#3a2025"/>
  <rect x="405" y="175" width="150" height="110" rx="2" fill="#1a0e12"/>
  <circle cx="300" cy="230" r="3" fill="#FFFDD0" opacity="0.2"/>
  <circle cx="480" cy="230" r="3" fill="#FFFDD0" opacity="0.2"/>
  <circle cx="350" cy="460" r="2" fill="#D4A5A5" opacity="0.3"/>
  <circle cx="400" cy="450" r="3" fill="#D4A5A5" opacity="0.3"/>
  <circle cx="450" cy="460" r="2" fill="#D4A5A5" opacity="0.3"/>
  <circle cx="380" cy="470" r="2" fill="#D4A5A5" opacity="0.2"/>
  <circle cx="420" cy="475" r="2" fill="#D4A5A5" opacity="0.2"/>
  <path d="M220 380 Q400 340 580 380" stroke="#C9B99A" stroke-width="0.5" fill="none" opacity="0.2"/>
  <text x="400" y="440" text-anchor="middle" font-family="Georgia, serif" font-size="14" fill="#C9B99A" opacity="0.8">Our little sanctuary</text>
</svg>
